<svg width="40" height="59" viewBox="0 0 40 59" fill="none" xmlns="http://www.w3.org/2000/svg">
<g filter="url(#filter0_di_36_2)">
<path d="M11.306 1.642C13.4993 1.642 14.596 5.46466 14.596 13.11L15.16 27.774H15.348L30.388 21.946C31.892 9.162 33.2707 2.77 34.524 2.77L35.746 2.582C36.8113 2.582 37.7827 3.428 38.66 5.12C36.4667 15.8987 35.37 25.236 35.37 33.132V37.174C35.37 42.9393 36.7487 48.4227 39.506 53.624C38.8793 55.3787 37.8767 56.256 36.498 56.256C33.49 56.256 31.2653 50.1773 29.824 38.02V28.432H29.26C19.86 31.7533 15.16 33.884 15.16 34.824C15.16 49.7387 13.7813 57.196 11.024 57.196H10.648C9.332 57.196 8.486 56.0993 8.11 53.906C9.05 47.0753 9.52 41.78 9.52 38.02L5.384 40.182L4.538 40.37C2.97133 39.806 2.188 38.8347 2.188 37.456C2.188 36.0773 4.632 33.9153 9.52 30.97V30.782C9.332 20.0033 8.92467 11.0733 8.298 3.992C8.298 2.61333 9.30067 1.83 11.306 1.642Z" fill="black" fill-opacity="0.82" shape-rendering="crispEdges"/>
</g>
<defs>
<filter id="filter0_di_36_2" x="0.188004" y="0.641998" width="39.318" height="57.554" filterUnits="userSpaceOnUse" color-interpolation-filters="sRGB">
<feFlood flood-opacity="0" result="BackgroundImageFix"/>
<feColorMatrix in="SourceAlpha" type="matrix" values="0 0 0 0 0 0 0 0 0 0 0 0 0 0 0 0 0 0 127 0" result="hardAlpha"/>
<feOffset dx="-1"/>
<feGaussianBlur stdDeviation="0.5"/>
<feComposite in2="hardAlpha" operator="out"/>
<feColorMatrix type="matrix" values="0 0 0 0 0 0 0 0 0 0 0 0 0 0 0 0 0 0 1 0"/>
<feBlend mode="normal" in2="BackgroundImageFix" result="effect1_dropShadow_36_2"/>
<feBlend mode="normal" in="SourceGraphic" in2="effect1_dropShadow_36_2" result="shape"/>
<feColorMatrix in="SourceAlpha" type="matrix" values="0 0 0 0 0 0 0 0 0 0 0 0 0 0 0 0 0 0 127 0" result="hardAlpha"/>
<feOffset dx="2" dy="1"/>
<feComposite in2="hardAlpha" operator="arithmetic" k2="-1" k3="1"/>
<feColorMatrix type="matrix" values="0 0 0 0 1 0 0 0 0 0.6 0 0 0 0 0 0 0 0 0.92 0"/>
<feBlend mode="normal" in2="shape" result="effect2_innerShadow_36_2"/>
</filter>
</defs>
</svg>
